<svg xmlns="http://www.w3.org/2000/svg" viewBox="0 0 604.89 398.35"><title>Asset 1</title><g id="Layer_2" data-name="Layer 2"><g id="Layer_1-2" data-name="Layer 1"><path d="M372.38,29.88c7.54-5.53,14.34-10.41,21-15.46,3-2.23,5-2.1,7,1.21,3.76,6,7.74,11.91,11.82,17.72C414.27,36.22,414,38,411,40c-8.69,5.72-16.55,12.5-24.45,19.24-2.56,2.18-3.25,4-1.38,6.9,2.25,3.45,4.32,7,6.89,11.23,7-12.06,15.06-22.07,25.09-30.4A116.66,116.66,0,0,1,436,34c3.65-2,5.84-1.6,7.7,2.38,3,6.43,6.31,12.73,9.75,18.93,1.74,3.14.91,4.76-1.91,6.61-9,5.93-17.37,12.62-24.1,21.19-6.22,7.91-10.33,16.68-11.33,26.77-.16,1.6-.9,3.68.55,4.63,1.9,1.25,3.28-.85,4.66-1.85A98.5,98.5,0,0,0,448.58,82.5c6.06-10.38,12.26-20.67,18.19-31.12,1.83-3.22,3.53-4.08,6.85-2,6,3.79,12.15,7.35,18.35,10.82,3.07,1.72,3.53,3.49,1.65,6.53-6,9.76-11.71,19.73-17.8,29.45-2.1,3.35-1.46,5.27,1.84,6.82.16.08.31.2.46.29,11.75,7,13.38,6.56,19-5.49a156,156,0,0,1,9.58-17.78c1.78-2.8,3.42-3.27,6.06-1Q521,86.24,529.57,93c2.52,2,2.7,4,1.07,6.56-1.25,2-2.1,4.25-3.31,6.28-2.54,4.24-.56,5.18,3.29,4.45,6.25-1.18,12.54-2.27,18.66-4,4-1.11,5.61,0,6.66,3.78,1.82,6.48,3.83,12.92,6.11,19.25,1.46,4.06.44,5.87-3.76,7-12.37,3.31-25,4.78-37.67,6a9.36,9.36,0,0,0-3.65.89c-1.61.92-1.77,2.68-1.48,4.36.38,2.22,2.2,2.12,3.83,2.13,8.56,0,17.12-.09,25.68.07,4.54.09,9.06.71,13.6,1,2.84.16,3.87,1.72,3.63,4.3q-1.11,11.95-2.34,23.89c-.32,3-2.66,3.06-4.92,3-7.63-.3-15.26-.68-22.9-.94a41.36,41.36,0,0,0-5.43.41c-2.63.26-3.6,1.54-2.28,4a80.42,80.42,0,0,0,9.46,14c1.9,2.27,3.81,1.4,5.77.1,12.83-8.52,27.1-13.12,42.19-15.51,8.08-1.28,8.57-.91,9,7.31.28,5.81.56,11.63,1,17.43.34,4.07-1,5.78-5.36,6.18-6.44.59-12.87,1.85-19.33,5.64a67.57,67.57,0,0,0,23.18,5.56c13.22,1,13.18.85,13.58,14.27.11,3.81.45,7.63.91,11.42.61,5-1.39,6.89-6.44,6.58a193.77,193.77,0,0,1-45-8.16c-4.18-1.28-8.38-2.5-12.45-4.08-2.94-1.14-4.92-.7-6.2,2.24-.15.33-.35.64-.52,1-7.1,13.38-6.51,15.28,6.13,23.23,10.79,6.8,22.46,8.41,35,7.71,18.78-1.05,16.82-3.64,17.54,15.15,0,.91,0,1.82,0,2.73.18,12.12.2,12.38-12,13.35-22,1.76-42.66-1.69-61.25-14.87-18.41-13.06-37.13-25.76-57.73-35.26-20-9.24-40.85-15.37-63.19-14.95a64.18,64.18,0,0,0-23.88,5c-11.38,4.79-16.86,14-18.79,25.66-3.37,20.29-5.54,40.72-6.93,61.23-1.22,18.16-2.45,36.31-2.06,54.53.09,4.13-1.76,5.35-5.59,5.34q-37.15-.12-74.3,0c-4.28,0-5.72-1.63-5.79-5.79-.32-18.92-.62-37.85-1.4-56.76-.54-13.25-.95-26.54-3.14-39.68a55.85,55.85,0,0,0-6.27-18c-8.76-15.82-21.66-18.54-39.37-15.84-7.4,1.13-13.93,4.42-20.23,8.89-25.57,18.16-54,25.46-85.26,20.81-2.86-.43-4.65-.11-6.57,2.21-19.23,23.23-44.85,34-74.07,37.46-9.23,1.09-9.25.82-9.86-8.41-.35-5.26-.33-10.6-1.28-15.76-1-5.41,1.48-6.56,6.06-7.05a96.41,96.41,0,0,0,33.89-9.84c3.71-1.9,7.34-4,10.28-8.11-6.47.55-13,.9-19.41,1.7a131.93,131.93,0,0,0-28.56,7c-3.44,1.24-5.31.6-6.71-2.92-2.68-6.77-5.62-13.44-8.7-20-1.41-3-.93-4.74,2.29-5.76,4.16-1.32,8.29-2.74,12.41-4.21,1.12-.4,3-.1,3.12-1.68.12-1.75-1.71-2.25-3-2.62A40.79,40.79,0,0,0,7,252.18c-3.31-.2-4.42-1.88-4.7-4.78C1.65,240.16,1,232.92.17,225.69c-.38-3.52,1-4.87,4.57-5,19.11-.91,39.87,8.39,46.23,27,.77,2.27,2.07,3,4.46,2.93a115.34,115.34,0,0,1,28.18,2.58c2.92.64,4.26-.58,5.36-3.16,6-14.1,5-15.5-10.16-16.71-25-2-47.18-11.44-66.63-27.33-2.89-2.36-2.79-4.09-.21-6.55q7.9-7.54,15.45-15.45c2.2-2.3,4-2.45,6.51-.46,16.63,13.2,36,18.89,56.84,19.49a111.07,111.07,0,0,0,32.36-4.26c2.59-.71,3.08-2,2-4.39-2.71-6-5.4-11.95-7.82-18-1.43-3.6-3.24-2.35-5.47-1.08-10.2,5.82-21,10.11-32.7,11.69-12.59,1.69-24.63-.5-36.4-4.9-2.84-1.06-3.55-2.67-2.31-5.45,3-6.81,6.13-13.62,8.89-20.55,1.42-3.57,3.35-3.89,6.74-2.79,11.73,3.82,23.18,2.94,35.43-3a123.63,123.63,0,0,1-28.11-14c-5.91-4-5.92-4-1.58-9.38,4-5,8.12-9.83,11.93-14.94,2.3-3.1,4.39-3.69,7.68-1.36,4.46,3.17,9.49,5.35,14.56,7.45,4.11,1.7,4.91,0,4.26-3.64-1.4-7.88-2.73-15.77-4.2-23.63-.66-3.51,0-5.36,4.16-5.71,7.06-.6,14.08-1.68,21.09-2.78,3.9-.61,5.59.62,6.14,4.66,1.46,10.82,3.76,21.49,6.22,32.13.81,3.5,2,4.13,5.19,2.39,9.95-5.48,20.34-9.78,31.77-11,2-.22,3.27-1.44,4.49-2.83,2.07-2.35,1.8-3.61-1.5-4.31-18.95-4-32.39-15.72-43.12-31.21-2.42-3.5-2.24-5.6,1.7-7.66,6.13-3.2,12.12-6.69,18-10.3,3.23-2,5.2-1.86,7.59,1.52,4.76,6.73,10.43,12.67,18.46,15.68,2.06.77,4.42,1.74,6.25.26s.85-4,.48-6.15a97.24,97.24,0,0,0-4.89-17.88c-1.19-3.12-.68-5.08,2.53-6.51q10.22-4.57,20.25-9.55c2.9-1.44,4.34-.54,5.4,2.21,9.94,25.85,14.46,51.92,2.91,78.52-1.25,2.88-1.23,4.59,1.6,6.24a35.7,35.7,0,0,1,5.09,4.12c1.63,1.41,3.2,2.89,4.76,4.31,1.88-1,1.77-2.62,2-3.92,3.11-18.48,12-33.84,25.36-46.69,3.14-3,2.89-5,.57-8.17A305.23,305.23,0,0,0,220,34.37c-2.69-2.74-3.37-4.58-.29-7.56,4.71-4.55,9.13-9.41,13.37-14.4,3.05-3.59,5.18-3.78,8.66-.18a330.13,330.13,0,0,1,30.69,36.23c3.12,4.33,4.73,3.44,7.49-.09,9.44-12,14.94-25.72,17.54-40.69,1.35-7.74,1.43-7.74,9.29-7.66,5.83.06,11.66.34,17.48.23,4.49-.08,5.76,2.07,5.19,6.12-3.76,26.69-13.6,50.55-32.94,69.81-3.13,3.12-3.86,5.38-1.53,9.29,2.59,4.35,4.41,9.17,6.38,13.87,1.15,2.73,2.12,3.71,4.24.73A335.05,335.05,0,0,1,343.5,55c2.11-2.07,1.47-4.18.84-6.54-2.8-10.58-4.72-21.28-4.7-32.31,0-4.42,1.52-5.81,5.75-5.29,7.22.89,14.46,1.58,21.7,2.24,2.68.24,3.77,1.55,4,4.18C371.32,21.26,371.87,25.19,372.38,29.88Zm-75,200.51,1.52-.26c.8-11.35,1.68-22.74-.46-34.06-3.23-17.09-14.7-27.07-32-28.28-6.35-.44-12.71-.67-19.06-1.07-19.07-1.19-37.26-4.72-51.29-19.31a19,19,0,0,0-11.63-5.48c-14.36-1.91-26.21,4.37-37.72,11.69-1.87,1.19-1.29,2.83-.73,4.37a184.84,184.84,0,0,0,10.33,23.45c1.72,3.22,3.67,3.53,6.56,1.78,3.73-2.26,7.56-4.38,11.32-6.59,28.57-16.72,58.49-14.75,84.56,5.62,13.08,10.22,23.34,22.89,32,37C293.08,222.9,295.22,226.66,297.41,230.39ZM422.3,213.45c2.94,2.32,6.21,1.77,9.14,2.34a203.43,203.43,0,0,1,67.77,26.41c4.51,2.75,6.22,1.93,7.57-2.74a38.15,38.15,0,0,1,5.58-11.2c1.86-2.66,1.8-4.64-.49-7.16A92.74,92.74,0,0,1,493,190c-1.48-4.1-3.84-5.3-7.86-4.54-14,2.64-27.67,6.28-40.52,12.57A83.48,83.48,0,0,0,422.3,213.45ZM316.46,162c1.54,0,2.08-1.53,3-2.59,11.65-13.66,26.1-22.36,44-25.29,6.09-1,12-2.81,18.12-3.91,4.53-.82,5.88-2.81,3.92-7.09-1.67-3.65-3.27-7.31-5.8-10.47-6.27-7.79-12.83-15.38-17.76-24.15-1.49-2.66-2.95-2.65-5-.53a218.78,218.78,0,0,0-16.09,18.55,204.18,204.18,0,0,0-27.93,46.71C311.36,156.75,313.33,161.72,316.46,162ZM269,244c-8-15.3-17.39-29.47-32.05-39.12-10.14-6.67-21.26-9.08-33.3-6-9.52,2.4-17.4,8.13-25.91,12.58-2.8,1.46-1,3,.07,4.32,3.89,4.83,8.52,8.92,13,13.18,3.84,3.65,7.63,4.42,12.82,2.89a77.63,77.63,0,0,1,31.25-2.8C247.81,230.47,258.76,236,269,244ZM411.3,181.75c22.1-14.75,45-22.41,69.19-26.81,2.71-.49,5.2-1.49,4.51-4.85-.84-4.13,3.11-9.85-3.82-12.05a91.87,91.87,0,0,1-24.56-11.59c-2.1-1.45-3.63-1-5.28.57a128.59,128.59,0,0,1-29.4,20.54c-1.32.69-2.53,1.52-2.68,3.18C418.32,160.9,415,170.5,411.3,181.75Zm-81.62,52.82c22-17.59,40.17-37.05,51.75-62,1.56-3.35,5.09-7.57,3-10.36-1.85-2.42-6.67.49-10.19.9-21.38,2.47-33.68,15.36-40,35C330.55,209.69,330.92,221.68,329.68,234.57ZM129.93,260.22a73.08,73.08,0,0,0,33.4-8.75c3.32-1.73,3.32-3,.75-5.45-3.69-3.5-7.24-7.17-10.56-11-9.09-10.53-9-10.52-22.16-6.47-2.6.8-3.89,2-4.16,4.82a102.78,102.78,0,0,1-3.7,18.67C121.17,260.24,121.16,260.24,129.93,260.22Zm145.89-122.4c3.71,1.14,4.24-.83,3.75-3.38a138.37,138.37,0,0,0-9.34-29.56c-.89-2-2.13-2.48-3.64-.69-6.7,8-11.25,16.91-12.46,27.36-.31,2.66.82,4,3.62,4.24C263.91,136.35,270,137.15,275.82,137.82Z"/></g></g></svg>