<svg id="Layer_1" data-name="Layer 1" xmlns="http://www.w3.org/2000/svg" viewBox="0 0 1010.34 666.67"><defs><style>.cls-1{fill:#f2dab6;}</style></defs><title>tanlogo</title><path class="cls-1" d="M1206.38,453c6.56,42.4-34.78,27.89-61.94,21.8-20.38-4.56-76.41-26.25-61.1,18.56,4.67,13.67,31.5,21.51,44.33,24.13,11.37,2.33,45.53-5.65,53.19.87,11.23,9.62,7.51,39.63-3.57,48.85-17.94,14.91-57.31,3.94-76.19-2.55-33-11.3-60.55-36-90-53.88-35.51-21.54-73.31-39.08-114.58-45.93-52.24-8.64-93,2.81-106.34,58.15-9.41,39-10,82.21-12.1,122.12-.84,14.95,4.85,48-1.53,61.13-8.24,17-38.13,9.33-55.85,9.3-20.45,0-41,.8-61.5.11-26.07-.91-21.22,1.09-25.55-20-10-48.45,2-101.64-7.87-151-5.4-27-19.69-50.67-48.19-57.2-34.67-8-58.58,17.1-86.91,31.9a185,185,0,0,1-58.84,19.21c-17.75,2.66-44.77-4.92-61,.15-14,4.41-26.79,23.66-39.37,32.7A173.2,173.2,0,0,1,281.12,596c-28.54,8.86-67,21-60.66-21.73,5.61-38,59.38-23.55,84.1-50.27-27-5.36-68.32,23.22-90.41,6.74-6.85-5.1-15.64-25.74-13.49-33.79,3.86-14.25,18.37-10.75,28.11-18.12C206.61,467,174,416.52,220,419.47a71.48,71.48,0,0,1,27.85,8,76.35,76.35,0,0,1,22.78,17.94c18.19,21.11,14.62,21.69,43.42,24.53,16.84,1.64,30.91,9.66,35.69-12.1,5.1-23.48-14.55-15.6-33-18.63-11.88-1.93-38.61-8.71-61-18.7-28.62-12.76-50.23-30.77-25.3-50.74,14-11.19,24.46-9.37,37.66-3.35,2.84,1.31,5.87,2.84,9,4.45,22.24,11.3,41.27,19,66.71,19.79,8.6.26,55.7.69,61.54-9.11,2.08-3.54-4.7-21.22-8.49-26.54-13.89-19.39-1.39-9.19-21.22-6.71-18,2.3-74.62,25.34-98.1,12.72-6.49-3.5-10.46-9.73-10.35-19.87.44-49.51,54.68-22.46,80.89-38.57-23-11.48-60.62-18-42.25-46.48,19.79-30.8,31.21-19.07,59.82-5.5C362.27,227,350.5,201.8,375.5,191c43.53-18.7,41,35.73,47.54,64.34,17.35-6.74,58.33-14.4,68.86-29-24.86-11.12-124.35-65.51-48.45-82.53,24.13-5.4,38.46,38.68,57.2,26.72,10.24-6.56-2.37-18.37-1.57-25.7,1.42-12.9,2.55-22.57,13.34-31.93,49.83-43.2,44.18,90,39.26,112.57-3.61,16.51-1,42.14,17.21,30.11,4.16-2.73,8-27.16,10.86-33.28,6-12.76,13.93-23.15,22.42-34.27,9.33-12.25,12.54-10.9,9.15-24.35-3-12-24.35-29.82-32.41-39.44-7.47-8.93-16.7-13.74-14.69-26.21,1.46-9,16.88-25.3,26.25-26.32,22.82-2.48,39,34.38,52.64,49.43,14.76,16.26,15.31,19.39,29.27.15A114.8,114.8,0,0,0,688.76,87c6.67-22.89,5.14-36.27,32.52-36.31,22.82,0,26.76,7.44,23.11,28.62-5,28.69-20.63,58-37.29,81.37-6,8.38-18.7,17.72-19.87,28.14-1.24,11.63,12.9,20.67,15.64,31.35-1.6-6.2,35.4-38.2,40.65-44.22,19.69-22.71,28.62-46.3,25.74-76.26-2.59-26.58-7.91-33.06,22.86-28.54,6.85,1,14.69-.69,20.45,4.45,4.63,4.19,5.32,23.91,6.89,24.39C829,102.79,845.69,75.49,858,75.82c11,.29,28.29,22,28.18,32.77C886,130,849.63,132.43,842.3,150.15c-7.18,17.24,3.32,25.48,17,18.56,7.58-3.86,15-21.25,21.44-28,9.44-9.88,20.78-19.43,32.81-26,18.92-10.32,34.38-1.35,37,22.57,2.52,22.49-15.78,28.4-30.44,41.12-18.77,16.26-29.16,39.23-27.52,64.2,21.65-9.37,37.18-29.16,50.05-48.34,8.68-12.9,22.2-53.15,35.91-59.42,8.53-3.86,30.51,7.69,35.14,16.62,6.93,13.34.87,20.6-6.42,33.57-7.8,14-24.32,28.8-7.73,41.45,21,16,25.12-11,33.1-23.77,10.35-16.66,16-23.84,33.87-12.32,22.93,14.8,14.87,24.42,9.11,44.18,25.77,2,54.65-15.71,58.11,26.25,2,24-13.71,19.18-36.6,22.82-4.16.66-54,5.69-36.64,17.35,23.37,15.75,84.32-22.57,75.32,28.29-6.45,36.38-37.88,21.73-64.45,27,2.55,4.16,13.38,27.16,18,28.91,8,3,14.25-5.72,21.54-8.75,12.61-5.18,52.49-26.58,65.55-18.23,9.26,5.94,12.25,28.18,7.25,39.63-8.31,19-24.57,13.12-39.81,21.4C1168.94,431.36,1201,418.31,1206.38,453Zm-155.08-19c1.09-12.8-28.91-73.71-42.25-73.71-33.39,5.91-85.78,17.35-106.19,47.57,31.72,12.58,65.25,14.51,96.57,30.62C1015.54,446.85,1048.35,469.67,1051.3,434.06ZM988.81,311.57c10.54-4.48,21.73-.8,17.94-18.74-1.93-9.19-13.78-14.87-21.22-18.7-30.33-15.64-46.7-2.88-70.69,16.22-22.24,17.75-23.91,35.4-31.39,64.09C917.07,332,952.91,326.84,988.81,311.57ZM798.67,394c9.08-10.75,49.07-60,39.3-72.22-11.88-14.84-56.65,17.46-64.34,26.14-22.57,25.52-23.33,59.06-25.74,91.21C748,440.95,792.62,401.17,798.67,394Zm-46.12-97.73C780,277,815.84,280.51,842.7,264.07c-3.5-12.32-34.12-67.66-47.46-67.08-21.65.91-60,76.88-68.32,93.62-3.28,6.63-16.11,25.63-3,29.78C729.62,322.18,746.14,300.71,752.55,296.22ZM697.62,415.65c.07-57.89-18.56-79.62-75.21-85.34A325,325,0,0,1,581.29,324c-18.66-4.3-36.2-11.08-53.73-23-19.58-13.27-55.37-22.6-75.9-.62-10.94,11.74-7.66,42.58,6.42,52.2,12.87,8.86,20.89-1.75,34.45-9,18.34-9.73,37.29-15.6,58.15-15.89a116.83,116.83,0,0,1,29.05,3.14c52.42,12.47,87,60,115,105.46C695.65,429.46,696.63,422.54,697.62,415.65ZM663.46,279.42c7-9.44-12.76-48.59-17.83-56.25C630.58,235,625,254,620.59,271.72,626.24,279.12,658.68,285.87,663.46,279.42ZM648.37,460.08c-13.31-25.92-32.55-54.32-58.66-69.08-23.44-13.27-69.12-14.36-88.73,8.53-8.68,10.13-7.11,14.14,4.45,26.43,13.09,13.89,19.87,11.77,37.62,9.92C582.09,431.83,616.83,433.91,648.37,460.08ZM415.24,485.75c20.92-1.82,42.62-5.65,59.57-19-15.89-17.13-31.21-51.47-57-31.82-8.42,6.38-17.17,25.59-16.4,36.09C402.92,492.68,403.14,477.66,415.24,485.75Z" transform="translate(-196.73 -50.66)"/></svg>